<svg xmlns="http://www.w3.org/2000/svg" width="129.614" height="42.04" viewBox="0 0 129.614 42.04">
    <defs>
        <style>.a{fill:#fff;}</style>
    </defs>
    <g transform="translate(0 0)">
        <g transform="translate(0 0)">
            <path class="a"
                  d="M9.2,42.913c-.335,0-.662,0-.994-.012a13.948,13.948,0,0,1-2.055-.179,6.468,6.468,0,0,1-1.821-.6A5.942,5.942,0,0,1,2.791,41a5.848,5.848,0,0,1-1.122-1.535,6.288,6.288,0,0,1-.6-1.821,13.641,13.641,0,0,1-.183-2.061c-.007-.232-.016-1-.016-1V9.194s.01-.76.016-.983a13.593,13.593,0,0,1,.182-2.057,6.325,6.325,0,0,1,.6-1.827A5.906,5.906,0,0,1,2.784,2.79,6.117,6.117,0,0,1,4.326,1.667a6.4,6.4,0,0,1,1.817-.6A13.836,13.836,0,0,1,8.2.888L9.2.875H122.158l1,.014a13.615,13.615,0,0,1,2.043.179,6.528,6.528,0,0,1,1.837.6,6.148,6.148,0,0,1,2.655,2.66,6.333,6.333,0,0,1,.588,1.812,14.277,14.277,0,0,1,.191,2.074c0,.311,0,.646,0,.978.009.412.009.8.009,1.2v23c0,.4,0,.789-.009,1.182,0,.357,0,.685,0,1.022a13.989,13.989,0,0,1-.188,2.037,6.307,6.307,0,0,1-.594,1.835,6.023,6.023,0,0,1-1.116,1.523,5.949,5.949,0,0,1-1.538,1.124,6.443,6.443,0,0,1-1.833.6,13.788,13.788,0,0,1-2.055.179c-.322.007-.659.012-.986.012l-1.192,0Z"
                  transform="translate(-0.873 -0.875)"/>
        </g>
        <g transform="translate(9.649 7.586)">
            <path d="M26.605,20.577a5.684,5.684,0,0,1,2.707-4.769,5.818,5.818,0,0,0-4.584-2.478c-1.929-.2-3.8,1.154-4.781,1.154-1,0-2.515-1.134-4.145-1.1a6.105,6.105,0,0,0-5.138,3.133c-2.221,3.846-.564,9.5,1.563,12.607,1.065,1.522,2.309,3.223,3.937,3.162,1.593-.066,2.188-1.016,4.111-1.016,1.905,0,2.463,1.016,4.125.978,1.71-.028,2.787-1.529,3.814-3.066a12.591,12.591,0,0,0,1.744-3.552A5.493,5.493,0,0,1,26.605,20.577Z"
                  transform="translate(-9.609 -7.276)"/>
            <path d="M22.509,11.856a5.6,5.6,0,0,0,1.28-4.009A5.694,5.694,0,0,0,20.1,9.753a5.325,5.325,0,0,0-1.314,3.861A4.708,4.708,0,0,0,22.509,11.856Z"
                  transform="translate(-8.65 -7.847)"/>
            <g transform="translate(26.783 11.072)">
                <path d="M43.125,28.087H37.9l-1.256,3.707H34.427l4.952-13.716h2.3l4.952,13.716H44.379Zm-4.687-1.711h4.144l-2.043-6.017h-.057Z"
                      transform="translate(-34.427 -17.849)"/>
                <path d="M56.051,26.453c0,3.108-1.663,5.1-4.173,5.1a3.39,3.39,0,0,1-3.146-1.75h-.047v4.953H46.631V21.452h1.987v1.663h.038a3.547,3.547,0,0,1,3.184-1.768C54.378,21.348,56.051,23.354,56.051,26.453Zm-2.11,0c0-2.025-1.046-3.356-2.643-3.356-1.568,0-2.623,1.359-2.623,3.356,0,2.015,1.055,3.364,2.623,3.364,1.6,0,2.643-1.321,2.643-3.364Z"
                      transform="translate(-33.151 -17.508)"/>
                <path d="M66.016,26.453c0,3.108-1.664,5.1-4.174,5.1a3.39,3.39,0,0,1-3.146-1.75h-.047v4.953H56.6V21.452h1.987v1.663h.038A3.547,3.547,0,0,1,61.8,21.348C64.343,21.348,66.016,23.354,66.016,26.453Zm-2.11,0c0-2.025-1.046-3.356-2.643-3.356-1.568,0-2.623,1.359-2.623,3.356,0,2.015,1.055,3.364,2.623,3.364,1.6,0,2.643-1.321,2.643-3.364Z"
                      transform="translate(-32.11 -17.508)"/>
                <path d="M71.908,27.994c.152,1.36,1.473,2.253,3.279,2.253,1.73,0,2.975-.893,2.975-2.12,0-1.065-.751-1.7-2.528-2.139l-1.778-.428c-2.519-.608-3.688-1.786-3.688-3.7,0-2.367,2.062-3.992,4.99-3.992,2.9,0,4.886,1.626,4.953,3.992H78.039c-.124-1.369-1.256-2.2-2.909-2.2s-2.785.836-2.785,2.053c0,.97.723,1.54,2.491,1.977l1.511.371c2.814.666,3.982,1.8,3.982,3.8,0,2.566-2.043,4.173-5.294,4.173-3.042,0-5.1-1.569-5.228-4.05Z"
                      transform="translate(-30.729 -17.871)"/>
                <path d="M83.679,19.3v2.367h1.9v1.626h-1.9V28.8c0,.856.381,1.256,1.217,1.256a6.412,6.412,0,0,0,.675-.047v1.616a5.636,5.636,0,0,1-1.14.095c-2.025,0-2.814-.76-2.814-2.7V23.292H80.163V21.666h1.454V19.3Z"
                      transform="translate(-29.646 -17.722)"/>
                <path d="M86.064,26.455c0-3.146,1.853-5.124,4.743-5.124s4.744,1.977,4.744,5.124-1.835,5.124-4.744,5.124S86.064,29.61,86.064,26.455Zm7.4,0c0-2.158-.989-3.432-2.652-3.432s-2.652,1.284-2.652,3.432c0,2.167.989,3.431,2.652,3.431s2.652-1.264,2.652-3.431Z"
                      transform="translate(-29.03 -17.509)"/>
                <path d="M96.185,21.452h1.958v1.7h.047a2.385,2.385,0,0,1,2.405-1.807,3.166,3.166,0,0,1,.7.077v1.92a2.87,2.87,0,0,0-.922-.124,2.068,2.068,0,0,0-2.139,2.3v5.931H96.185Z"
                      transform="translate(-27.972 -17.508)"/>
                <path d="M110.237,28.517c-.276,1.815-2.044,3.061-4.306,3.061-2.909,0-4.715-1.949-4.715-5.076s1.815-5.171,4.628-5.171c2.767,0,4.507,1.9,4.507,4.933v.7h-7.063v.124a2.6,2.6,0,0,0,2.69,2.833,2.262,2.262,0,0,0,2.309-1.407ZM103.3,25.532h5a2.4,2.4,0,0,0-2.453-2.538,2.532,2.532,0,0,0-2.546,2.538Z"
                      transform="translate(-27.446 -17.509)"/>
            </g>
        </g>
    </g>
    <g transform="translate(37.537 7.838)">
        <path d="M35.428,12.044c0-2.137,1.137-3.458,2.968-3.458a2.633,2.633,0,0,1,2.741,2.284H40.118A1.7,1.7,0,0,0,38.4,9.541c-1.183,0-1.923.964-1.923,2.5s.74,2.5,1.928,2.5a1.652,1.652,0,0,0,1.717-1.215h1.019A2.572,2.572,0,0,1,38.4,15.5C36.569,15.5,35.428,14.177,35.428,12.044Z"
              transform="translate(-35.428 -7.961)"/>
        <path d="M41.611,12.689a2.356,2.356,0,1,1,4.691,0,2.357,2.357,0,1,1-4.691,0Zm3.681,0c0-1.078-.484-1.709-1.334-1.709s-1.333.63-1.333,1.709.48,1.712,1.333,1.712S45.293,13.771,45.293,12.689Z"
              transform="translate(-34.783 -7.801)"/>
        <path d="M47.05,10.2h.945v.79h.073a1.489,1.489,0,0,1,1.484-.886,1.618,1.618,0,0,1,1.721,1.85v3.22h-.982V12.2c0-.8-.347-1.2-1.073-1.2a1.141,1.141,0,0,0-1.188,1.26v2.91H47.05Z"
              transform="translate(-34.213 -7.802)"/>
        <path d="M54.09,10.108c1.119,0,1.85.52,1.946,1.4h-.942c-.091-.365-.448-.6-1-.6s-.964.26-.964.648c0,.3.251.484.791.608l.826.191c.946.22,1.389.626,1.389,1.357,0,.936-.873,1.562-2.06,1.562s-1.954-.534-2.042-1.416h.983a1.009,1.009,0,0,0,1.082.621c.612,0,1.046-.274,1.046-.671,0-.3-.233-.489-.731-.607l-.867-.2c-.946-.224-1.384-.648-1.384-1.388C52.158,10.729,52.966,10.108,54.09,10.108Z"
              transform="translate(-33.692 -7.801)"/>
        <path d="M56.865,9.591,58.012,8.02h1.151L57.879,9.591Zm.1.832h.977V15.4h-.977Z"
              transform="translate(-33.187 -8.02)"/>
        <path d="M59.244,15.674h1c.083.361.5.594,1.161.594.818,0,1.3-.388,1.3-1.046v-.955h-.073A1.673,1.673,0,0,1,61.1,15.1c-1.27,0-2.055-.982-2.055-2.471,0-1.517.794-2.512,2.065-2.512A1.724,1.724,0,0,1,62.674,11h.078V10.2h.941v5.015c0,1.137-.891,1.859-2.3,1.859C60.152,17.076,59.349,16.519,59.244,15.674Zm3.485-3.047c0-.991-.512-1.626-1.348-1.626s-1.319.635-1.319,1.626.475,1.626,1.319,1.626,1.348-.63,1.348-1.626Z"
              transform="translate(-32.959 -7.8)"/>
        <path d="M68.868,15.168h-.946v-.79h-.078a1.491,1.491,0,0,1-1.5.886,1.615,1.615,0,0,1-1.713-1.841V10.195h.983v2.973c0,.8.324,1.188,1.045,1.188A1.129,1.129,0,0,0,67.885,13.1V10.195h.983Z"
              transform="translate(-32.377 -7.792)"/>
        <path d="M74.112,13.835a2.019,2.019,0,0,1-2.155,1.439,2.259,2.259,0,0,1-2.3-2.567,2.294,2.294,0,0,1,2.293-2.6c1.384,0,2.219.945,2.219,2.507v.343H70.66v.055a1.315,1.315,0,0,0,1.325,1.425,1.192,1.192,0,0,0,1.183-.6Zm-3.453-1.6h2.512a1.2,1.2,0,0,0-1.224-1.288,1.272,1.272,0,0,0-1.288,1.289Z"
              transform="translate(-31.852 -7.801)"/>
        <path d="M74.977,8.437h.982v6.915h-.982Z" transform="translate(-31.294 -7.976)"/>
        <path d="M77.1,12.689a2.356,2.356,0,1,1,4.691,0,2.357,2.357,0,1,1-4.691,0Zm3.681,0c0-1.078-.484-1.709-1.334-1.709s-1.333.63-1.333,1.709S78.6,14.4,79.449,14.4,80.784,13.771,80.784,12.689Z"
              transform="translate(-31.073 -7.801)"/>
        <path d="M89.215,13.835a2.019,2.019,0,0,1-2.155,1.439,2.259,2.259,0,0,1-2.3-2.567,2.294,2.294,0,0,1,2.293-2.6c1.384,0,2.219.945,2.219,2.507v.343H85.762v.055a1.315,1.315,0,0,0,1.325,1.425,1.192,1.192,0,0,0,1.183-.6Zm-3.453-1.6h2.512a1.2,1.2,0,0,0-1.224-1.288,1.272,1.272,0,0,0-1.288,1.289Z"
              transform="translate(-30.273 -7.801)"/>
        <path d="M90.039,10.2h.945v.79h.073a1.489,1.489,0,0,1,1.484-.886,1.618,1.618,0,0,1,1.722,1.85v3.22h-.982V12.2c0-.8-.347-1.2-1.073-1.2a1.141,1.141,0,0,0-1.188,1.26v2.91h-.982Z"
              transform="translate(-29.72 -7.802)"/>
        <path d="M101.911,13.835a2.019,2.019,0,0,1-2.155,1.439,2.259,2.259,0,0,1-2.3-2.567,2.294,2.294,0,0,1,2.293-2.6c1.384,0,2.219.945,2.219,2.507v.343H98.458v.055a1.315,1.315,0,0,0,1.325,1.425,1.192,1.192,0,0,0,1.183-.6Zm-3.453-1.6h2.512a1.2,1.2,0,0,0-1.224-1.288,1.272,1.272,0,0,0-1.288,1.289Z"
              transform="translate(-28.946 -7.801)"/>
        <path d="M102.776,8.437h.982v6.915h-.982Z" transform="translate(-28.388 -7.976)"/>
    </g>
</svg>
