<svg xmlns="http://www.w3.org/2000/svg" xmlns:xlink="http://www.w3.org/1999/xlink" width="143" height="42.041"
     viewBox="0 0 143 42.041">
    <defs>
        <style>
            .a,.h{fill:#fff;}.b{fill:url(#a);}.c{fill:url(#b);}.d{fill:url(#c);}.e{fill:url(#d);}.f{opacity:0.2;}.f,.g,.h{isolation:isolate;}.g{opacity:0.12;}.h{opacity:0.25;}.i{stroke:#fff;stroke-miterlimit:10;stroke-width:0.2px;}
        </style>
        <linearGradient id="a" x1="0.915" y1="6.614" x2="-0.383" y2="5.945" gradientUnits="objectBoundingBox">
            <stop offset="0" stop-color="#00a0ff"/>
            <stop offset="0.007" stop-color="#00a1ff"/>
            <stop offset="0.26" stop-color="#00beff"/>
            <stop offset="0.512" stop-color="#00d2ff"/>
            <stop offset="0.76" stop-color="#00dfff"/>
            <stop offset="1" stop-color="#00e3ff"/>
        </linearGradient>
        <linearGradient id="b" x1="1.076" y1="17.098" x2="-1.305" y2="17.098" gradientUnits="objectBoundingBox">
            <stop offset="0" stop-color="#ffe000"/>
            <stop offset="0.409" stop-color="#ffbd00"/>
            <stop offset="0.775" stop-color="orange"/>
            <stop offset="1" stop-color="#ff9c00"/>
        </linearGradient>
        <linearGradient id="c" x1="0.862" y1="10.863" x2="-0.501" y2="9.093" gradientUnits="objectBoundingBox">
            <stop offset="0" stop-color="#ff3a44"/>
            <stop offset="1" stop-color="#c31162"/>
        </linearGradient>
        <linearGradient id="d" x1="-0.188" y1="13.583" x2="0.421" y2="12.793" gradientUnits="objectBoundingBox">
            <stop offset="0" stop-color="#32a071"/>
            <stop offset="0.068" stop-color="#2da771"/>
            <stop offset="0.476" stop-color="#15cf74"/>
            <stop offset="0.801" stop-color="#06e775"/>
            <stop offset="1" stop-color="#00f076"/>
        </linearGradient>
    </defs>
    <path class="a"
          d="M6.783,0H136.217A6.755,6.755,0,0,1,143,6.727V35.314a6.755,6.755,0,0,1-6.783,6.727H6.783A6.755,6.755,0,0,1,0,35.314V6.727A6.755,6.755,0,0,1,6.783,0Z"
          transform="translate(0 0)"/>
    <path d="M79.742,31.992a4.47,4.47,0,1,0,4.522,4.47A4.423,4.423,0,0,0,79.742,31.992Zm0,7.178a2.714,2.714,0,1,1,2.542-2.708A2.595,2.595,0,0,1,79.742,39.17Zm-9.865-7.178a4.47,4.47,0,1,0,4.522,4.47A4.424,4.424,0,0,0,69.877,31.992Zm0,7.178a2.714,2.714,0,1,1,2.542-2.708A2.595,2.595,0,0,1,69.877,39.17ZM58.141,33.364v1.9h4.573a3.943,3.943,0,0,1-1.04,2.387,4.7,4.7,0,0,1-3.533,1.388,5.045,5.045,0,0,1,0-10.091A4.892,4.892,0,0,1,61.588,30.3l1.348-1.338a6.7,6.7,0,0,0-4.8-1.914,6.944,6.944,0,1,0,0,13.885,6.419,6.419,0,0,0,4.88-1.948,6.237,6.237,0,0,0,1.656-4.436,6.08,6.08,0,0,0-.1-1.184Zm47.993,1.472a4.181,4.181,0,0,0-3.857-2.844,4.262,4.262,0,0,0-4.249,4.47,4.391,4.391,0,0,0,4.471,4.47,4.488,4.488,0,0,0,3.754-1.981l-1.536-1.016A2.578,2.578,0,0,1,102.5,39.17a2.3,2.3,0,0,1-2.185-1.354l6.024-2.473Zm-6.144,1.49a2.461,2.461,0,0,1,2.355-2.608,1.745,1.745,0,0,1,1.673.948Zm-4.9,4.334h1.979V27.521H95.093ZM91.85,32.99h-.068a3.134,3.134,0,0,0-2.372-1,4.473,4.473,0,0,0,0,8.94,3.08,3.08,0,0,0,2.372-1.016h.068v.644c0,1.71-.921,2.624-2.406,2.624a2.492,2.492,0,0,1-2.27-1.592l-1.723.712a4.292,4.292,0,0,0,3.993,2.641c2.321,0,4.284-1.355,4.284-4.656V32.262H91.85Zm-2.269,6.18a2.717,2.717,0,0,1,0-5.418,2.526,2.526,0,0,1,2.406,2.726A2.5,2.5,0,0,1,89.581,39.17Zm25.826-11.648h-4.736V40.661h1.976V35.683h2.76a4.089,4.089,0,1,0,0-8.161Zm.051,6.332h-2.811v-4.5h2.811a2.253,2.253,0,1,1,0,4.5Zm12.215-1.887a3.718,3.718,0,0,0-3.527,2.011l1.755.727a1.876,1.876,0,0,1,1.806-.964,1.9,1.9,0,0,1,2.078,1.691v.135a4.4,4.4,0,0,0-2.061-.507c-1.891,0-3.817,1.031-3.817,2.958A3.051,3.051,0,0,0,127.2,40.91a2.794,2.794,0,0,0,2.522-1.285h.068v1.014h1.908V35.6C131.693,33.269,129.939,31.968,127.673,31.968Zm-.238,7.2c-.648,0-1.551-.321-1.551-1.115,0-1.014,1.124-1.4,2.1-1.4a3.548,3.548,0,0,1,1.806.439A2.39,2.39,0,0,1,127.435,39.168Zm11.209-6.914-2.266,5.7h-.068l-2.352-5.7H131.83l3.526,7.961-2.01,4.429h2.061l5.435-12.39Zm-17.8,8.406h1.977V27.522h-1.977Z"
          transform="translate(-7.568 -9.13)"/>
    <g transform="translate(10.564 7.505)">
        <path class="b"
              d="M20.462,17.542a2.1,2.1,0,0,0-.489,1.477V42.263a2.1,2.1,0,0,0,.489,1.477l.078.076L33.664,30.794v-.307L20.541,17.465Z"
              transform="translate(-19.973 -17.124)"/>
        <path class="c"
              d="M37.273,34.715,32.9,30.373v-.307l4.376-4.342.1.057L42.555,28.7c1.48.835,1.48,2.2,0,3.034l-5.183,2.922Z"
              transform="translate(-19.207 -16.703)"/>
        <path class="d" d="M38.111,34.44,33.637,30l-13.2,13.1a1.734,1.734,0,0,0,2.2.064L38.111,34.44"
              transform="translate(-19.946 -16.484)"/>
        <path class="e" d="M38.111,26.218,22.637,17.494a1.734,1.734,0,0,0-2.2.064l13.2,13.1Z"
              transform="translate(-19.946 -17.14)"/>
        <g transform="translate(0 17.858)">
            <path class="f"
                  d="M38.012,34.132,22.637,42.8a1.775,1.775,0,0,1-2.123.012h0l-.079.078h0l.078.077h0a1.775,1.775,0,0,0,2.123-.012L38.111,34.23Z"
                  transform="translate(-19.946 -34.132)"/>
            <path class="g" d="M20.462,42.39a2.1,2.1,0,0,1-.489-1.477v.155a2.094,2.094,0,0,0,.489,1.476l.079-.078Z"
                  transform="translate(-19.973 -33.786)"/>
        </g>
        <path class="g"
              d="M42.31,31.365l-5.281,2.978.1.1,5.183-2.922A1.845,1.845,0,0,0,43.421,30h0A1.958,1.958,0,0,1,42.31,31.365Z"
              transform="translate(-18.962 -16.484)"/>
        <path class="h"
              d="M22.665,17.648,43.321,29.293a1.958,1.958,0,0,1,1.11,1.364h0a1.842,1.842,0,0,0-1.11-1.518L22.665,17.494c-1.481-.835-2.692-.141-2.692,1.541v.154C19.973,17.507,21.184,16.813,22.665,17.648Z"
              transform="translate(-19.973 -17.14)"/>
    </g>
    <g transform="translate(43.726 7.216)">
        <path class="i"
              d="M51.28,23.306V17h1.944a3.175,3.175,0,0,1,2.344.877,3.074,3.074,0,0,1,.878,2.277,3.075,3.075,0,0,1-.878,2.276,3.175,3.175,0,0,1-2.344.877Zm.817-.775h1.127a2.393,2.393,0,0,0,1.745-.626,2.328,2.328,0,0,0,.643-1.752,2.337,2.337,0,0,0-.643-1.749,2.4,2.4,0,0,0-1.745-.63H52.1Z"
              transform="translate(-51.28 -16.859)"/>
        <path class="i" d="M57.239,23.306V17h.817v6.306Z" transform="translate(-50.927 -16.859)"/>
        <path class="i"
              d="M61.2,23.454A2.381,2.381,0,0,1,59.847,23a2.076,2.076,0,0,1-.866-1.26l.746-.3a1.693,1.693,0,0,0,.546.875,1.386,1.386,0,0,0,.928.356,1.492,1.492,0,0,0,.91-.276.885.885,0,0,0,.377-.754.961.961,0,0,0-.377-.815,3.913,3.913,0,0,0-1.193-.533,3.179,3.179,0,0,1-1.279-.683,1.418,1.418,0,0,1-.436-1.07,1.558,1.558,0,0,1,.542-1.179,1.991,1.991,0,0,1,1.411-.5,2.051,2.051,0,0,1,1.313.4,1.857,1.857,0,0,1,.658.877l-.746.308a1.088,1.088,0,0,0-.4-.555,1.4,1.4,0,0,0-1.615.005.789.789,0,0,0-.333.646.732.732,0,0,0,.306.595,2.959,2.959,0,0,0,.9.436,7.559,7.559,0,0,1,.786.291,3.561,3.561,0,0,1,.639.374,1.489,1.489,0,0,1,.488.581,1.873,1.873,0,0,1,.164.805,1.716,1.716,0,0,1-.191.82,1.553,1.553,0,0,1-.506.573,2.567,2.567,0,0,1-1.425.431Z"
              transform="translate(-50.824 -16.866)"/>
        <path class="i"
              d="M65,23.306h-.817V17h2.166a2.017,2.017,0,0,1,1.4.533,1.824,1.824,0,0,1,0,2.686,2.017,2.017,0,0,1-1.4.533H65Zm0-3.33h1.368a1.056,1.056,0,0,0,.825-.343,1.079,1.079,0,0,0,0-1.515,1.055,1.055,0,0,0-.825-.345H65Z"
              transform="translate(-50.515 -16.859)"/>
        <path class="i"
              d="M74.3,22.5a3.319,3.319,0,0,1-4.66,0,3.388,3.388,0,0,1,0-4.677,3.308,3.308,0,0,1,4.655,0,3.377,3.377,0,0,1,0,4.673Zm-4.057-.529a2.458,2.458,0,0,0,3.453,0,2.671,2.671,0,0,0,0-3.62,2.458,2.458,0,0,0-3.453,0,2.674,2.674,0,0,0,0,3.62Z"
              transform="translate(-50.248 -16.866)"/>
        <path class="i"
              d="M75.951,23.306V17h.995l3.089,4.905h.035l-.035-1.215V17h.817v6.306H80l-3.231-5.144h-.035l.035,1.216v3.928Z"
              transform="translate(-49.818 -16.859)"/>
        <path class="i" d="M81.951,23.306V17h.817v6.306Z" transform="translate(-49.462 -16.859)"/>
        <path class="i"
              d="M84.1,23.306V17h2.3a1.871,1.871,0,0,1,1.291.489,1.579,1.579,0,0,1,.547,1.229A1.362,1.362,0,0,1,88,19.51a1.472,1.472,0,0,1-.625.52v.035a1.622,1.622,0,0,1,.772.545,1.433,1.433,0,0,1,.3.9,1.648,1.648,0,0,1-.573,1.285,1.965,1.965,0,0,1-1.354.511Zm.816-3.6h1.483a.962.962,0,0,0,.75-1.628.916.916,0,0,0-.714-.3H84.912Zm0,2.828h1.643a.98.98,0,0,0,.764-.327,1.044,1.044,0,0,0,.292-.714,1.015,1.015,0,0,0-.3-.708,1.033,1.033,0,0,0-.79-.322H84.912Z"
              transform="translate(-49.335 -16.859)"/>
        <path class="i" d="M89.241,23.306V17h.817v5.531h2.751v.775Z" transform="translate(-49.03 -16.859)"/>
        <path class="i" d="M97.293,17.775H94.4v2h2.609v.757H94.4v2h2.894v.775H93.582V17h3.711Z"
              transform="translate(-48.773 -16.859)"/>
        <path class="i" d="M104.014,17.775h-2.895v2h2.61v.757h-2.61v2h2.895v.775H100.3V17h3.711Z"
              transform="translate(-48.375 -16.859)"/>
        <path class="i"
              d="M105.012,23.306V17h.994l3.089,4.905h.035l-.035-1.215V17h.818v6.306h-.853l-3.232-5.144h-.035l.035,1.216v3.928Z"
              transform="translate(-48.096 -16.859)"/>
    </g>
</svg>
