<svg xmlns="http://www.w3.org/2000/svg" width="25.849" height="25.849" viewBox="0 0 25.849 25.849">
  <g id="Instagram_logo" data-name="Instagram logo" transform="translate(-4.079 -4.079)">
    <path id="Path_1045" data-name="Path 1045" d="M17,6.408c3.451,0,3.86.013,5.223.075a7.154,7.154,0,0,1,2.4.445,4.28,4.28,0,0,1,2.453,2.453,7.153,7.153,0,0,1,.445,2.4c.062,1.363.075,1.772.075,5.223s-.013,3.86-.075,5.223a7.154,7.154,0,0,1-.445,2.4,4.28,4.28,0,0,1-2.453,2.453,7.154,7.154,0,0,1-2.4.445c-1.363.062-1.771.075-5.223.075s-3.86-.013-5.223-.075a7.154,7.154,0,0,1-2.4-.445,4.28,4.28,0,0,1-2.453-2.453,7.154,7.154,0,0,1-.445-2.4c-.062-1.363-.075-1.772-.075-5.223s.013-3.86.075-5.223a7.153,7.153,0,0,1,.445-2.4A4.28,4.28,0,0,1,9.381,6.928a7.153,7.153,0,0,1,2.4-.445c1.363-.062,1.772-.075,5.223-.075m0-2.329c-3.51,0-3.95.015-5.329.078a9.487,9.487,0,0,0-3.137.6,6.609,6.609,0,0,0-3.78,3.78,9.487,9.487,0,0,0-.6,3.137c-.063,1.378-.078,1.819-.078,5.329s.015,3.95.078,5.329a9.487,9.487,0,0,0,.6,3.137,6.609,6.609,0,0,0,3.78,3.78,9.487,9.487,0,0,0,3.137.6c1.378.063,1.819.078,5.329.078s3.95-.015,5.329-.078a9.487,9.487,0,0,0,3.137-.6,6.609,6.609,0,0,0,3.78-3.78,9.487,9.487,0,0,0,.6-3.137c.063-1.378.078-1.819.078-5.329s-.015-3.95-.078-5.329a9.487,9.487,0,0,0-.6-3.137,6.609,6.609,0,0,0-3.78-3.78,9.487,9.487,0,0,0-3.137-.6c-1.378-.063-1.819-.078-5.329-.078Z" transform="translate(0 0)" fill="#fff"/>
    <path id="Path_1046" data-name="Path 1046" d="M133.163,126.635a6.528,6.528,0,1,0,6.528,6.528A6.528,6.528,0,0,0,133.163,126.635Zm0,10.765a4.237,4.237,0,1,1,4.237-4.237A4.237,4.237,0,0,1,133.163,137.4Z" transform="translate(-116.159 -116.159)" fill="#fff"/>
    <circle id="Ellipse_100" data-name="Ellipse 100" cx="1.578" cy="1.578" r="1.578" transform="translate(22.309 8.543)" fill="#fff"/>
  </g>
</svg>
